<svg width="238" height="48" viewBox="0 0 238 48" fill="none" xmlns="http://www.w3.org/2000/svg">
<g id="redbullcom-logo 1">
<g id="logo/rbcom/desktop">
<g id="f-rbmn-logo-logotype">
<g id="color---simplified">
<path id="outline" d="M49.3542 37.7243C50.4742 37.4603 51.497 36.8587 52.6429 36.9517C54.537 37.2439 55.4343 36.8738 56.8808 35.9367C57.9424 36.5448 59.2029 37.813 61.7932 37.7849C62.6257 37.839 63.5922 37.4278 63.3976 36.547C63.3457 35.7831 64.8419 36.1142 64.937 35.1403C65.1035 34.5582 64.9803 34.582 64.0722 34.0344C62.5586 33.2056 62.5846 31.6214 61.4451 30.5956C61.3197 30.4463 60.95 30.1779 60.9392 29.9896C57.1402 19.6991 61.6181 23.2115 52.991 13.5009C50.5369 11.6787 46.9499 7.48889 43.7629 7.73777C40.8699 7.83083 40.1369 9.46909 38.005 10.1638C35.3152 11.1182 33.7022 11.3909 31.5379 13.41C30.1368 14.5873 28.2752 13.133 26.2838 15.2301C22.0654 19.487 21.5919 15.4854 14.6665 20.8958C11.0859 24.0079 6.13883 21.7615 10.1259 17.76C12.1475 16.3165 14.7075 14.5397 13.7627 11.7826C13.4427 9.71797 10.4783 9.14664 8.6102 8.85015C7.52911 8.63373 5.68261 7.21188 5.07288 6.82666C3.24368 8.88044 4.15828 13.6264 8.09992 14.109C8.26297 14.1186 8.39304 14.2488 8.40263 14.412C8.41776 14.5544 8.38257 14.6976 8.30317 14.8167C5.4772 17.0436 4.86963 17.9526 4.77017 20.4825C4.55396 23.9451 7.40587 26.5681 11.0405 26.4491C11.6188 26.4587 12.197 26.4247 12.7702 26.3473C12.8697 26.3473 12.9713 26.3473 12.9713 26.4491C13.2567 28.0137 13.3778 29.9269 13.8816 30.496C13.981 30.6973 13.981 30.9007 13.78 31.0003C12.6232 32.1386 10.1583 30.8553 9.53561 32.9221C9.14858 33.7661 9.24155 34.8157 8.32479 35.2485C7.67614 35.1057 7.50316 34.1448 6.60586 34.1361C5.70856 34.1275 4.22747 34.7984 3.57881 36.2613C2.88692 36.7353 2.18637 36.4128 1.86205 37.4733C1.71502 37.4625 1.63502 38.0338 1.66096 38.2827C1.63291 38.7473 1.49428 39.1984 1.25664 39.5985C0.590687 40.4403 1.31285 41.4705 2.368 41.622C3.14854 41.6826 3.64152 41.9899 3.88152 41.7215C3.98098 41.7215 3.98098 41.622 4.0826 41.622C4.29882 41.4164 4.46531 41.5657 4.68801 41.622C5.13774 41.6458 5.79072 41.9964 6.30532 41.9249C6.4164 41.9112 6.5277 41.9486 6.60802 42.0267C8.12155 42.0137 8.60155 41.4099 9.13344 40.6091C9.10534 40.2499 9.3929 40.0032 9.53777 39.7002C9.67615 39.5552 9.77561 39.4838 9.9421 39.4968C10.2037 39.5725 10.807 39.6612 10.954 39.7002C13.2675 39.9036 13.8729 37.536 15.7108 37.272C16.1648 37.272 17.0081 37.3607 18.8416 37.575C20.0438 37.6702 21.22 36.7959 22.3789 36.1596C22.8979 35.8999 23.3497 35.7549 23.793 35.1468C24.3379 34.714 24.993 32.0434 25.713 32.0131C27.1898 31.9828 28.5865 31.498 30.0568 31.5067C31.8622 31.4266 33.6979 31.9287 35.3109 31.3054C35.3714 31.3271 35.726 31.2513 35.8169 31.405C36.046 31.7448 36.6925 31.8962 36.5239 32.3161C36.5239 32.4178 36.3206 32.5174 36.2212 32.6191C35.8882 32.6191 35.4039 32.645 35.1098 33.0238C34.9628 33.1579 34.552 33.1969 34.4006 33.0238C33.4341 33.1103 30.699 32.7056 30.3595 34.1361C30.6168 35.2442 31.5271 38.0186 33.3866 37.7784C33.4882 37.7784 33.6893 37.878 33.6893 37.9797C34.3963 39.395 35.6093 40.3062 36.7163 40.3062C37.8234 40.3062 40.578 39.3171 42.6774 38.2827H43.5726C44.8547 38.1636 45.3672 37.8195 46.098 36.3609C47.0688 35.3914 46.2839 38.3454 49.3629 37.7286L49.3542 37.7243ZM47.4083 31.2037C47.1056 31.5067 46.8029 31.6084 46.3985 32.2144C45.6915 31.9114 45.5899 31.0003 45.4904 30.5956C46.0958 30.496 47.4083 30.1909 48.1175 30.0913C47.711 30.496 47.5077 30.6973 47.4061 31.2037H47.4083Z" fill="white"/>
<path id="bull" d="M63.1998 34.4759C61.8872 33.7689 61.3811 32.2533 60.5724 31.1419C58.4574 28.9539 58.0984 25.2112 57.5448 22.1475C56.9869 19.1724 54.4459 16.9714 52.6835 14.6709C51.12 13.3952 47.0393 9.52937 45.1147 8.911C42.5737 7.85372 40.3572 9.85152 38.2422 10.831C36.5252 11.538 34.7065 11.7391 33.1906 13.0536C30.8118 16.1065 29.3824 13.6633 26.6208 16.0806C22.5121 20.3875 20.955 16.5973 15.3044 21.6394C13.7906 22.5475 12.3742 23.4578 10.5469 23.3561C7.64259 23.2199 6.65432 19.3173 8.92929 17.5962C10.5144 15.8233 14.4069 14.0006 12.4715 11.1337C10.4604 9.34126 8.09456 10.1045 5.70281 8.10669C4.59993 9.83639 6.00989 12.1823 7.82424 12.7553C8.56815 13.2179 10.2982 12.4807 10.6528 13.5574C9.88728 15.0903 7.79613 15.9206 6.81435 17.3995C4.36854 20.2232 6.78407 24.8523 10.2484 25.0685C11.5286 25.4837 13.1613 24.4372 13.9874 24.8675C14.0891 25.8772 13.9874 26.7874 14.1907 27.6977C14.2837 28.6922 15.4168 29.7603 14.7962 30.7246C13.7908 31.5903 12.4876 32.0301 11.1632 31.9506C10.4733 32.7441 10.3566 33.6457 9.95 34.5775C9.44613 35.4856 8.43624 35.89 7.72693 36.2943C7.25983 37.0056 6.79488 37.7926 5.80661 37.9115C5.20111 38.6185 5.09947 39.5288 4.89836 40.4391C7.42634 41.1072 7.96697 40.7677 9.34449 38.6185C9.85052 38.1148 10.5577 38.5191 11.0615 38.6185C12.4974 38.4477 13.5679 37.4878 14.5994 36.5991C18.2757 35.637 18.2411 38.0456 22.4796 35.2846C23.1889 34.9819 23.4917 34.1732 23.7944 33.5657C24.1491 32.8889 25.1287 31.5852 23.8961 31.2436C20.7237 37.6651 15.2006 32.4392 10.9599 37.2975C10.3111 37.4769 10.815 36.4672 10.9599 36.2856C14.0026 31.8533 20.9226 35.7559 23.2862 30.0155C23.7014 29.1333 23.4657 25.6177 24.4994 25.6696C24.6011 25.6696 24.9038 25.7712 24.9038 25.9723C23.922 30.2576 24.5708 31.5873 29.1467 30.8371C30.7123 30.383 35.2017 31.9808 35.1087 29.8274C35.1087 29.423 34.7043 29.222 35.1087 28.9193C35.2082 28.8177 35.5131 28.9193 35.6126 29.0187C35.898 30.7484 37.4161 32.0176 38.8564 32.7592C41.7606 34.7354 40.5864 37.3148 37.2388 37.2045C36.1273 36.5991 35.8245 35.4856 35.0157 34.5775C34.0707 33.7495 32.7797 34.1451 31.6811 34.3743C31.1362 35.1981 32.4315 36.1797 32.691 37.0034C33.1971 37.3061 33.9042 36.8002 34.3086 37.4056C34.713 38.011 34.9141 38.6185 35.5218 39.0229C37.2734 40.7028 40.9281 37.7515 42.7965 37.6088C44.4292 37.7861 45.1752 36.2986 45.7267 35.0813C46.6479 33.3992 44.1978 31.7365 44.0096 30.2317C43.4517 30.0782 42.7121 29.6414 42.2904 30.2317C42.5997 30.9841 44.334 33.7365 44.2108 34.5775C43.9837 35.1851 43.469 36.5948 42.697 36.4975C42.9003 35.7905 43.203 34.984 43.203 34.1732C42.8354 33.3084 41.2113 30.8111 41.0816 29.929C41.4038 29.0749 43.0625 29.5701 43.7069 28.716C44.4162 27.6047 44.6173 26.4934 44.8206 25.0793C44.864 24.9334 44.9777 24.8189 45.1233 24.7745C46.1073 25.408 45.106 28.4501 44.5157 29.1203C44.4594 30.1668 46.5225 29.4663 46.942 29.1203C47.7227 29.2825 49.3056 28.5041 49.669 29.0187C49.1957 29.6153 48.8518 30.3037 48.6591 31.0403C48.0536 31.7473 47.0437 32.2533 47.0437 33.263C47.1539 33.8986 48.0081 32.8738 48.0536 33.6673C47.1734 34.7851 47.2837 35.0554 47.5475 36.2943C48.4709 37.5915 50.2355 36.5235 51.3882 36.1948C53.3344 35.4316 55.525 36.6402 57.0475 34.5775C57.4594 34.6128 57.8321 34.8362 58.0574 35.1829C59.1831 36.3655 60.7716 36.994 62.4019 36.9018C63.0636 36.4413 61.6169 36.0802 61.392 35.8899C60.6848 35.4856 59.7744 34.8802 59.5733 34.0716C59.3073 32.943 58.492 31.9095 57.9557 30.8392C60.315 30.8738 60.5637 35.8013 64.0108 35.0835C64.1794 34.9667 64.1621 34.8413 64.1124 34.6792L63.1998 34.4759ZM46.2241 19.2178C46.1224 19.3195 46.0208 19.3195 45.8197 19.3195C45.5494 18.2989 45.4542 17.233 44.9093 16.3876C44.626 16.1109 44.2605 15.7498 44.5049 15.2763C44.6566 15.1006 44.9119 15.0579 45.1125 15.1747C46.0381 15.8665 46.1938 16.8309 46.2241 18.0049C46.4252 18.206 46.3235 18.8135 46.2241 19.2178ZM54.5087 33.4662C54.0469 33.5891 53.5721 33.6566 53.0944 33.6673H52.9949C52.3959 33.1159 53.6437 32.0154 54.3076 32.05C54.3724 32.05 54.5433 32.05 54.6103 32.05C54.9801 32.2035 54.8849 33.1787 54.5087 33.4662ZM57.1361 27.6047C57.0237 27.8015 56.8507 28.316 56.6323 28.3117C56.4138 28.3074 56.3187 28.3441 56.3295 28.1106C56.31 27.4317 56.1998 26.5972 55.6202 26.1907C54.3011 24.1388 53.968 26.7096 53.4988 26.3918C53.2176 25.8209 53.661 25.1745 53.9032 24.675C54.0156 24.5388 54.061 24.381 54.2059 24.2707C54.4222 23.0275 55.5575 23.7367 55.8235 24.4718C56.5198 25.3366 57.3372 26.3118 57.2378 27.302C57.1361 27.2004 57.1361 27.4036 57.1361 27.6047ZM5.90393 36.9018C6.61107 36.4975 7.01546 35.7905 7.31821 35.1829C7.10196 34.8435 6.83814 34.3959 6.30832 34.5775C5.82778 34.9488 5.32197 35.2862 4.79456 35.5873C4.54154 36.2748 5.173 37.1397 5.90609 36.9018H5.90393ZM3.68302 36.9018C2.48283 37.3926 3.11861 38.8715 2.37037 39.6304C2.37037 39.7299 2.1671 39.9331 2.37037 40.0347C2.87424 40.1342 3.27863 40.3374 3.88414 40.4391C4.15445 39.5353 4.41612 38.5299 4.59128 37.7105C4.388 37.4056 4.08525 37.0034 3.68086 36.9018H3.68302ZM36.4214 34.6792C36.8258 35.1829 36.8258 35.89 37.3318 36.2943C37.9499 36.3806 38.5754 36.1971 39.0488 35.7905C39.3516 35.5873 38.9472 35.2846 38.8477 34.9819C38.5428 34.5775 38.7461 33.7689 38.0389 33.7689C37.2734 33.9462 36.4343 33.7257 35.7142 33.97C35.7142 34.2748 36.3197 34.2748 36.4214 34.6792Z" fill="#DB0A40"/>
<path id="splash-4" d="M85.9067 27.8018C85.8569 26.1312 85.1815 24.3179 84.0516 23.1271L83.9997 23.0666C83.4217 25.3467 82.5927 27.3587 80.2116 30.983C79.296 32.3705 77.6704 32.431 76.6638 33.7039C76.4257 33.5742 76.495 33.397 76.1876 33.7255C77.4561 32.364 76.0058 33.0642 76.5989 32.4094C78.8111 29.9672 80.8372 27.7672 81.6944 24.4714C81.3329 24.9231 81.1143 25.0636 80.7506 25.5217C81.1619 24.1191 81.4822 22.9283 81.7874 21.489L81.3978 21.3334C80.0406 25.9129 77.8003 29.9197 73.7005 32.6687C68.3756 36.5329 72.8715 35.2405 73.7676 34.4409C67.0574 41.281 52.2039 45.6789 43.6667 38.72C44.9135 39.9324 46.4439 41.2874 47.8985 42.1779C47.0132 42.0266 46.3833 41.3415 45.5477 41.08C45.5607 41.1081 47.5781 43.7296 53.6 44.4168C53.9875 44.46 54.3576 44.4989 54.7148 44.5314C62.9251 45.1797 63.4252 43.7123 69.1549 42.502C69.4124 42.6122 67.3084 43.6972 64.4144 44.5141C59.8449 46.1825 54.5395 44.9463 50.667 44.5443H50.6843C50.7731 44.5876 51.3748 44.8642 54.4551 45.9642C54.2386 46.042 53.2321 46.1803 49.0327 44.3822C59.3362 50.3147 70.4255 45.8237 79.5298 39.0831C79.5298 39.1133 79.5168 39.1565 79.5168 39.1933C79.5969 39.2062 79.6986 39.2192 79.7809 39.2257C79.7311 39.3705 79.7311 39.3705 79.0254 40.2112C80.5623 38.9728 81.3502 37.0516 82.978 35.8888C82.1446 37.5594 81.0796 38.7567 79.0969 40.6931C79.2478 40.5779 79.3923 40.4546 79.5298 40.3236C76.5318 43.1201 72.5771 45.8951 66.4404 47.3517C66.8846 47.3002 67.324 47.2135 67.7544 47.0923C66.9773 47.3085 66.9556 47.3344 66.6266 47.4425C66.8301 47.4165 66.8301 47.4165 67.8886 47.2026C67.2716 47.5051 66.5595 47.6499 64.8365 48C75.0512 46.3835 85.6751 38.4477 85.9067 27.8018Z" fill="url(#paint0_linear_0_5)"/>
<path id="splash-3.4" d="M75.5566 41.7692C71.5044 44.3324 67.0211 46.5682 62.0133 47.139C68.0373 47.3544 75.186 43.0185 79.08 39.4667C77.9142 40.2421 76.7484 41.0218 75.5566 41.7692Z" fill="url(#paint1_linear_0_5)"/>
<path id="splash-3.3" d="M69.0533 42.4534C63.2877 43.6797 62.961 45.1448 54.7116 44.5207C54.0626 44.72 50.6335 44.5097 50.0667 44.3236C50.0948 44.3236 50.3609 44.4397 50.5902 44.5316H50.5751C51.4405 44.4221 57.1455 45.6529 58.9672 45.4076C61.3319 45.5697 68.7526 43.3381 69.0533 42.4534Z" fill="url(#paint2_linear_0_5)"/>
<path id="splash-3.2" d="M81.9183 21.6347L81.714 21.5466C81.4055 22.9686 81.0861 24.1586 80.6733 25.5527C81.0383 25.0973 81.2578 24.9577 81.6206 24.5088C80.7515 27.7845 78.7266 29.9712 76.5061 32.3985C75.9108 33.0429 77.3752 32.3534 76.0933 33.7066C76.4018 33.3801 76.3323 33.5563 76.5713 33.6852C77.5794 32.42 79.2133 32.3598 80.1323 30.9808C82.5223 27.3764 83.3544 25.3787 83.9323 23.1125C83.9516 23.1316 83.9697 23.1516 83.9867 23.1727C83.4048 22.5321 82.7022 22.0097 81.9183 21.6347Z" fill="url(#paint3_linear_0_5)"/>
<path id="splash-3.1" d="M54.9148 39.5495C51.1307 37.4046 53.8737 38.8309 57.1891 39.6146C59.6178 40.213 62.1237 40.4327 64.6189 40.2659C68.567 38.7463 71.9407 36.5384 73.8154 34.4435C72.9169 35.2684 68.4742 36.5037 73.7506 32.6633C77.837 29.9019 80.0767 25.8813 81.4266 21.2832C80.3681 20.8922 79.269 20.6227 78.1502 20.48C76.5692 24.2596 76.3338 26.8843 72.8305 28.9727C68.9212 31.5301 71.3683 30.8744 71.4072 30.8549C71.7117 30.7333 72.0015 30.5775 72.2711 30.3903C70.7592 32.8218 68.1286 34.374 64.9925 35.0752C64.8932 36.0565 63.3964 35.7265 63.4547 36.4863C63.6469 37.3699 62.6837 37.7889 61.8521 37.7281C59.2603 37.7563 58.0055 36.4841 56.945 35.8741C55.2906 36.9769 54.513 37.1181 52.431 36.8858C51.3964 36.901 50.4526 37.4285 49.4266 37.6673C50.8953 38.9872 57.2193 40.6849 54.9148 39.5495ZM74.8608 29.0205C75.5195 27.5768 77.0487 26.8018 77.5519 25.0585C77.4785 25.3147 78.0249 25.421 78.2409 25.421C79.1048 25.2734 79.1264 24.0837 79.405 23.8363C79.1891 26.5391 77.364 28.7534 75.3683 30.5857C75.1057 30.4259 74.7802 30.4111 74.5044 30.5466C74.4202 30.0386 75.5152 29.3309 74.8608 29.0205Z" fill="url(#paint4_linear_0_5)"/>
<path id="splash-2" d="M78.3243 13.1022C75.7903 11.6551 72.9283 11.3171 70.2368 10.2426C74.2859 11.1092 79.1013 11.9909 82.095 15.0324C82.1425 15.0562 82.2547 15.1667 82.3108 15.1819C82.5698 15.3573 82.8655 15.9791 83.226 15.7494C76.945 3.44688 57.8649 4.816 48.7867 9.86137C49.281 10.2426 49.8249 10.6911 50.3321 11.1243C52.0588 9.72056 59.0628 8.74138 59.6801 8.8367C57.3404 9.30679 53.4639 10.7192 51.1091 11.7786L51.4393 12.058C56.2439 10.3618 63.5565 9.17898 68.7388 10.4268C64.5969 10.8882 57.213 10.8254 52.3005 12.7881C53.6495 13.8127 54.8518 15.678 56.0108 17.0471C64.0249 13.1239 68.6482 12.996 72.7017 13.5095C73.0902 13.7261 69.8267 13.8626 70.6188 14.103C71.4994 14.3067 73.1506 13.8171 73.5326 13.7673C73.7809 13.6871 75.3392 13.7391 75.8313 13.8322C77.7048 14.2893 75.9479 14.5276 75.2939 14.3738C74.9717 14.3479 74.6478 14.3545 74.3269 14.3933C73.6039 14.5298 72.7297 14.6901 72.0088 14.7984C71.8146 14.8309 69.6152 14.7724 69.9497 15.0584C70.3706 15.0302 72.2225 15.366 72.6995 15.3097C72.9866 15.2447 73.2779 15.3422 73.5499 15.1949C73.6837 15.1017 74.232 15.0346 74.2557 15.2642C73.6319 16.6593 71.7369 15.613 70.3102 15.9141C69.0389 16.0094 67.6899 16.5791 67.4611 16.3798C71.6311 13.8344 61.5018 17.6168 61.6723 18.2602C61.6836 18.2635 61.6955 18.2635 61.7068 18.2602C61.737 18.83 63.3278 18.0003 63.6494 18.0609C64.3465 18.0068 65.2897 17.5713 65.9696 17.411C66.479 17.411 66.6797 17.6666 67.187 17.554C68.3007 17.5345 69.3065 17.0536 70.3814 16.8413C70.4764 16.8413 71.1476 17.1251 71.1152 17.203C73.1398 19.0249 74.2082 17.5063 76.4292 18.1064C76.7832 18.1541 76.3644 18.3837 76.2436 18.4552C75.0716 19.2827 73.6794 19.4105 72.3218 19.5102C72.0945 19.4834 71.8642 19.5209 71.657 19.6185C71.2102 19.5838 70.7936 19.8351 70.3468 19.768C69.0756 19.794 67.8194 19.9846 66.6776 20.5673C66.2459 20.6518 65.7559 20.7212 65.4343 21.0439C65.1063 21.3104 64.612 21.2086 64.3228 21.5075C63.8307 21.8043 60.1182 22.5907 60.537 23.3554C60.537 23.3554 60.524 23.3554 60.5154 23.3554H60.537C60.5389 23.372 60.5389 23.3887 60.537 23.4052C66.669 22.5257 73.9794 18.1866 81.7129 21.436C84.8966 23.063 86.6772 25.8922 85.4081 31.36C85.4189 31.334 85.557 30.97 85.5549 30.9549L85.5311 30.9722C85.8916 29.6962 86.2218 28.6001 86.2132 27.309C87.0442 22.5885 83.4742 15.9076 78.3243 13.1022ZM71.0677 8.48359C72.1923 8.73705 74.2535 9.11399 74.927 9.82671C73.1592 9.80721 72.2829 9.04033 72.311 9.05983C71.9721 8.95585 70.908 8.57457 71.0677 8.48359Z" fill="#FAD50A"/>
<path id="splash-1" d="M51.1311 11.826L50.3912 11.2115C52.1545 9.77127 59.0456 8.85277 59.7445 8.92392C58.7063 9.13316 57.6841 9.41413 56.6851 9.7648C54.8547 10.362 52.8382 11.108 51.1311 11.826ZM86.9215 21.7441C85.8397 13.6954 83.0833 6.62984 73.2627 4.0339C79.3359 5.5022 79.7924 6.25899 80.5843 6.78292C75.8677 2.42545 68.2691 0.90972 60.5883 2.21416C65.0669 0.767418 72.4275 0.944218 77.0317 3.79026C66.0492 -2.98634 52.849 -0.05621 44.7333 7.68201C46.2479 7.97524 47.5785 8.97567 48.8139 9.92866C58.0244 4.92221 77.0317 3.55094 83.3537 15.7976C82.9903 16.0261 82.7047 15.4095 82.4364 15.2327C82.3866 15.2176 82.2741 15.1076 82.22 15.0839C79.2169 12.0654 74.3964 11.1727 70.3332 10.3168C73.0442 11.3948 75.9001 11.7225 78.4402 13.1628C85.0673 16.9618 87.9601 24.6613 85.6667 30.9333L85.6904 30.9161C86.7107 27.9719 87.1293 24.8541 86.9215 21.7462V21.7441ZM64.5909 9.97394C60.3892 9.97394 55.0711 10.7631 51.4903 12.13L52.3298 12.8372C56.6072 11.2115 63.7969 10.7997 67.3149 10.666C71.125 10.5496 65.9843 9.98688 64.5909 9.97394ZM72.4081 9.13953C72.3388 9.10288 73.2886 9.89417 75.0303 9.90279C74.3488 9.19128 72.2934 8.82474 71.1597 8.56601C71.0039 8.65657 72.0705 9.03604 72.4102 9.13953H72.4081Z" fill="#F2940A"/>
</g>
<g id="f-rbmn-logotype">
<path id="Shape" fill-rule="evenodd" clip-rule="evenodd" d="M205.1 31.6C205.1 33.4 206.6 34.9 208.5 34.9C210.4 34.9 211.9 33.4 211.9 31.6V20.8H217.8V32.8C217.8 36.8 213.6 40.1 208.4 40.1C203.2 40.1 199 36.8 199 32.8V20.8H205V31.6H205.1ZM231.3 39.4H237.3V7.90002H231.3V39.4ZM221.2 39.4H227.2V7.90002H221.2V39.4ZM111.4 14.5H108.1V39.4H101.7V9.40002H112.7C117.7 9.40002 121.7 13.4 121.7 18.3C121.7 22.4 118.8 26 114.8 26.9L123.6 39.5H116.1L109.7 29.7V22.5H111.2C113.6 22.5 115.5 20.7 115.5 18.6C115.5 16.3 113.7 14.5 111.4 14.5Z" fill="#D2003C"/>
<path id="Shape_2" fill-rule="evenodd" clip-rule="evenodd" d="M129.3 27.9C129.2 25.9 130.7 24.1 132.8 24C134.8 23.9 136.6 25.4 136.7 27.5C136.7 27.6 136.7 27.8 136.7 27.9H129.3ZM142.5 31.3C142.5 30.9 142.6 30.5 142.6 30C142.7 23.5 138.4 19.9 132.9 19.9C127.4 19.9 123 24.4 123 29.9C123 35.4 127.4 39.9 132.9 39.9C137.1 39.9 140.3 38 142 35.1L137.1 32.8C136.4 34.2 134.9 35.1 133.3 35.1C131 35.1 129.2 33.4 129.2 31.4V31.2C129.3 31.3 142.5 31.3 142.5 31.3ZM156.1 34.8C153.7 34.8 151.7 32.6 151.7 30C151.7 27.3 153.7 25.2 156.1 25.2C158.5 25.2 160.5 27.4 160.5 30C160.5 32.7 158.5 34.8 156.1 34.8ZM166.4 39.4V7.90002H160.4V22.8C158.8 21.2 156.6 20.3 154.4 20.3C149.5 20.3 145.4 24.7 145.4 30.1C145.4 35.5 149.4 39.9 154.4 39.9C156.7 39.9 158.9 38.9 160.5 37.3V39.4H166.4ZM186.8 34.2H181.1V14.5H185.1C186.9 14.5 188.3 16.1 188.3 17.9C188.3 19.7 186.9 21.1 185.1 21.1H183V26.5H186.8C188.9 26.5 190.5 28.2 190.5 30.3V30.4C190.4 32.5 189.1 34.1 186.8 34.2ZM191.8 23.1C193.5 21.6 194.4 19.5 194.4 17.3C194.4 15.3 193.6 13.4 192.2 11.9C190.8 10.3 188.2 9.50002 184.8 9.50002H174.6V39.5H187.9C193 39.4 197.1 35.6 197.1 30.9C197 27.4 195.8 25 191.8 23.1Z" fill="#D2003C"/>
</g>
</g>
</g>
</g>
<defs>
<linearGradient id="paint0_linear_0_5" x1="48.2946" y1="34.6743" x2="87.2682" y2="34.6743" gradientUnits="userSpaceOnUse">
<stop stop-color="#1885C8"/>
<stop offset="0.14" stop-color="#1881C3"/>
<stop offset="0.32" stop-color="#1A74B3"/>
<stop offset="0.52" stop-color="#1B6099"/>
<stop offset="0.73" stop-color="#1E4475"/>
<stop offset="0.96" stop-color="#212047"/>
<stop offset="1" stop-color="#22183D"/>
</linearGradient>
<linearGradient id="paint1_linear_0_5" x1="62.464" y1="43.5781" x2="79.9742" y2="40.9152" gradientUnits="userSpaceOnUse">
<stop offset="0.24" stop-color="#52BCE8"/>
<stop offset="1" stop-color="#3F88B9"/>
</linearGradient>
<linearGradient id="paint2_linear_0_5" x1="50.0667" y1="43.9447" x2="69.0533" y2="43.9447" gradientUnits="userSpaceOnUse">
<stop offset="0.54" stop-color="#52BCE8"/>
<stop offset="1" stop-color="#49A4D3"/>
</linearGradient>
<linearGradient id="paint3_linear_0_5" x1="79.0206" y1="27.9435" x2="81.3682" y2="27.4374" gradientUnits="userSpaceOnUse">
<stop stop-color="#3A78AC"/>
<stop offset="0.29" stop-color="#34689E"/>
<stop offset="0.86" stop-color="#253E78"/>
<stop offset="1" stop-color="#21336E"/>
</linearGradient>
<linearGradient id="paint4_linear_0_5" x1="48.9083" y1="32.2948" x2="81.8903" y2="25.025" gradientUnits="userSpaceOnUse">
<stop stop-color="#52BCE8"/>
<stop offset="0.25" stop-color="#51B9E6"/>
<stop offset="0.41" stop-color="#4EB0DE"/>
<stop offset="0.56" stop-color="#48A1D0"/>
<stop offset="0.69" stop-color="#418CBD"/>
<stop offset="0.78" stop-color="#3977AB"/>
<stop offset="0.85" stop-color="#33669C"/>
<stop offset="0.98" stop-color="#243B75"/>
<stop offset="1" stop-color="#21336E"/>
</linearGradient>
</defs>
</svg>
